<?xml version="1.0" standalone="no"?>
<!DOCTYPE svg PUBLIC "-//W3C//DTD SVG 20010904//EN"
 "http://www.w3.org/TR/2001/REC-SVG-20010904/DTD/svg10.dtd">
<svg version="1.0" xmlns="http://www.w3.org/2000/svg"
 width="200.000000pt" height="200.000000pt" viewBox="0 0 200.000000 200.000000"
 preserveAspectRatio="xMidYMid meet">

<g transform="translate(0.000000,200.000000) scale(0.100000,-0.100000)"
fill="#000000" stroke="none">
<path d="M591 1725 c-117 -33 -235 -118 -296 -215 -96 -152 -90 -328 15 -503
l40 -66 -25 -37 c-56 -82 -16 -184 80 -204 22 -4 31 -13 35 -35 13 -64 41 -92
105 -105 19 -4 31 -13 33 -25 11 -71 61 -115 128 -115 22 0 52 8 67 19 l28 18
93 -93 c97 -97 132 -115 193 -100 42 11 93 69 93 105 0 25 4 31 21 31 50 0
107 50 115 102 5 29 11 38 26 38 52 0 118 66 118 118 0 16 6 22 20 22 34 0 80
29 100 63 21 34 26 92 11 116 -7 11 3 28 35 64 75 84 132 203 149 313 9 59
-11 159 -48 233 -82 168 -284 284 -467 268 -82 -7 -141 -28 -207 -73 l-52 -36
-47 33 c-26 18 -70 41 -98 52 -68 26 -195 32 -265 12z m204 -60 c81 -21 145
-66 275 -192 103 -99 110 -108 110 -144 0 -49 -28 -79 -73 -79 -28 0 -47 14
-137 105 -58 58 -110 105 -117 105 -6 0 -109 -106 -228 -235 -119 -129 -219
-235 -223 -235 -13 0 -71 103 -92 164 -74 216 68 455 305 512 69 17 111 17
180 -1z m639 -16 c160 -59 276 -217 276 -375 0 -101 -68 -254 -143 -323 l-26
-24 -66 61 c-74 69 -113 83 -173 60 -41 -15 -82 -68 -82 -104 0 -18 -6 -24
-20 -24 -52 0 -120 -65 -120 -115 0 -15 -12 -24 -47 -35 -52 -16 -93 -64 -93
-106 0 -18 -6 -24 -20 -24 -36 0 -77 -28 -107 -72 -31 -46 -85 -88 -114 -88
-28 0 -59 36 -59 67 0 20 20 47 76 105 76 77 82 92 51 112 -13 8 -31 -4 -95
-67 -86 -83 -115 -94 -152 -57 -38 38 -27 69 55 150 52 51 75 81 73 95 -6 42
-41 28 -113 -45 -75 -75 -109 -88 -147 -53 -34 31 -23 74 33 128 28 28 137
144 241 258 l191 208 102 -100 c114 -113 131 -119 210 -81 46 22 71 59 81 118
9 54 -13 89 -116 181 -44 40 -80 76 -80 81 0 15 96 69 150 85 67 18 160 12
234 -16z m28 -737 c84 -84 91 -103 57 -146 -37 -47 -65 -36 -157 58 -45 46
-82 92 -82 103 0 36 29 63 67 63 32 0 46 -9 115 -78z m-139 -141 c44 -45 77
-87 77 -98 0 -32 -38 -73 -68 -73 -19 0 -47 21 -109 83 -91 91 -99 112 -57
153 37 38 66 26 157 -65z m-140 -140 c84 -85 92 -108 55 -148 -36 -39 -63 -30
-145 50 -41 39 -79 82 -84 95 -18 47 27 98 76 85 11 -2 55 -40 98 -82z m-146
-134 c93 -93 103 -120 56 -157 -40 -31 -67 -19 -152 65 -62 61 -74 79 -74 106
0 36 31 69 66 69 13 0 53 -32 104 -83z"/>
<path d="M411 866 c-21 -25 -10 -61 20 -64 14 -2 31 3 37 11 9 11 6 19 -17 41
-24 23 -30 25 -40 12z"/>
<path d="M545 720 c-15 -16 -17 -25 -9 -38 14 -22 57 -27 72 -9 9 11 6 19 -16
41 l-29 26 -18 -20z"/>
<path d="M685 580 c-15 -16 -17 -25 -9 -38 14 -22 57 -27 72 -9 9 11 6 19 -16
41 l-29 26 -18 -20z"/>
<path d="M1327 953 c-13 -12 -7 -50 9 -63 13 -11 19 -9 41 13 22 22 24 28 13
41 -13 16 -51 22 -63 9z"/>
<path d="M1187 813 c-13 -12 -7 -50 9 -63 13 -11 19 -9 41 13 22 22 24 28 13
41 -13 16 -51 22 -63 9z"/>
<path d="M1047 673 c-13 -12 -7 -50 9 -63 13 -11 19 -9 41 13 22 22 24 28 13
41 -13 16 -51 22 -63 9z"/>
<path d="M907 533 c-13 -12 -7 -50 9 -63 13 -11 19 -9 41 13 22 22 24 28 13
41 -13 16 -51 22 -63 9z"/>
</g>
</svg>
