<svg viewBox="0 0 512 512" xmlns="http://www.w3.org/2000/svg" fill="none">
  <path
    d="M256 132c-36 0-68-14-96-6-30 9-50 38-54 77-4 35 7 71 28 105 14 23 26 44 27 66 1 27-1 54 3 78 2 16 10 26 22 26 16 0 28-23 37-46 12-31 24-64 33-64s21 33 33 64c9 23 21 46 37 46 12 0 20-10 22-26 4-24 2-51 3-78 1-22 13-43 27-66 21-34 32-70 28-105-4-39-24-68-54-77-28-8-60 6-96 6z"
    stroke="#000000"
    stroke-width="18"
    stroke-linecap="round"
    stroke-linejoin="round"
  />
  <g
    stroke="#000000"
    stroke-width="10"
    stroke-linecap="round"
    stroke-linejoin="round"
  >
    <path d="M175.274 138.453c-19.407-17.822-36.77-17.822-54.986 0 18.216-17.822 18.216-35.185 0-54.984 18.216 19.799 35.579 19.799 54.986 0-19.407 19.799-19.407 37.165 0 54.984z"/>
    <path d="M304.041 62.327c11.163 10.253 21.151 10.253 31.631 0-10.479 10.253-10.479 20.238 0 31.628-10.479-11.391-20.468-11.391-31.631 0 11.163-11.391 11.163-21.378 0-31.628z"/>
    <path d="M377.436 182.912c7.228 6.634 13.692 6.634 20.474 0-6.785 6.634-6.785 13.101 0 20.474-6.785-7.373-13.249-7.373-20.474 0 7.228-7.374 7.228-13.838 0-20.474z"/>
    <path d="M77.909 219.954c11.163 10.253 21.151 10.253 31.631 0-10.479 10.253-10.479 20.24 0 31.631-10.479-11.391-20.468-11.391-31.631 0 11.163-11.391 11.163-21.38 0-31.631z"/>
  </g>
</svg>
