<svg viewBox="0 0 64 64" xmlns="http://www.w3.org/2000/svg" fill="none">
  <g stroke="#000000" stroke-width="2.4" stroke-linecap="round" stroke-linejoin="round">
    <path d="M12.07 18C7.81 18 5 22.89 5 28.93C5 34.96 7.81 54 12.07 54C14.56 54 14.84 38.19 18.18 38.18C22.16 38.19 21.8 54 24.29 54C28.55 54 31.36 34.96 31.36 28.93C31.36 22.89 28.55 18 24.29 18C22.25 18 20.21 19.93 18.18 19.93C16.14 19.93 14.11 18 12.07 18Z"/>
    <path d="M40.07 18C35.81 18 33 22.89 33 28.93C33 34.96 35.81 54 40.07 54C42.56 54 42.84 38.19 46.18 38.18C50.16 38.19 49.8 54 52.29 54C56.55 54 59.36 34.96 59.36 28.93C59.36 22.89 56.55 18 52.29 18C50.25 18 48.21 19.93 46.18 19.93C44.14 19.93 42.11 18 40.07 18Z"/>
    <path d="M5 28H59"/>
    <rect x="15" y="24" width="6" height="8" rx="1"/>
    <rect x="43.18" y="24" width="6" height="8" rx="1"/>
  </g>
</svg>
