<svg viewBox="0 0 256 256" xmlns="http://www.w3.org/2000/svg">
  <g fill="#000000" stroke="#000000" stroke-width="2.8" transform="translate(0 256) scale(.1 -.1)">
    <path d="M240 2360v-40h-40c-39 0-40-1-40-35 0-34 1-35 40-35h40v-40c0-39 1-40 35-40 34 0 35 1 35 40v40h40c39 0 40 1 40 35 0 34-1 35-40 35h-40v40c0 39-1 40-35 40-34 0-35-1-35-40z"/>
    <path d="M853 2385c-189-42-341-203-373-395-22-129 12-346 79-515 17-42 31-77 31-78 0-1-28-2-63-3-44 0-75-7-107-24-58-30-220-129-242-148-17-14-18-54-18-566 0-303 4-557 8-564 7-10 245-12 1158-10l1149 3 3 567 2 566-92 73c-136 107-169 124-250 124-38 0-68 1-68 3 0 2 16 48 35 104 45 127 65 244 65 367 0 150-36 250-124 348-95 106-209 156-356 156-82 1-107-4-184-31-148-52-232-51-389 7-75 28-184 35-264 16zm283-97c76-27 103-32 184-32 80 0 110 5 190 31 120 40 172 47 245 34 136-25 241-105 302-228 34-69 38-85 41-175 8-181-31-339-129-526l-59-114-50-401c-27-221-52-413-55-425-9-39-53-72-95-72-42 0-86 33-95 72-3 12-32 200-65 417-34 220-68 409-77 428-18 39-72 78-120 88-65 13-148-27-178-86-9-16-45-217-80-447l-64-417-31-27c-47-43-120-33-149 20-5 9-33 206-61 437-50 401-54 422-81 465-116 186-191 491-159 653 32 164 168 303 332 337 67 14 156 3 254-32zm1041-944c27-5 218-140 233-163 3-5 4-241 2-525l-2-516-1088 2-1087 3-3 515-2 515 114 68c62 37 130 72 150 78 47 13 107-3 146-39l30-27 50-405c28-223 55-419 60-436 12-37 54-79 93-93 77-30 179 6 211 73 9 20 44 211 79 443 35 224 69 418 75 430 7 13 27 30 44 39 40 21 98 6 122-31 11-17 38-163 80-439 37-235 71-427 80-444 28-54 72-77 147-77 56 0 71 4 101 27 22 17 42 45 52 70 8 24 38 225 65 447 56 449 51 433 136 472 43 20 65 22 112 13z"/>
    <path d="M814 2171c-28-16-63-46-79-66-35-47-65-125-65-170 0-33 2-35 35-35 33 0 35 2 35 33 0 55 47 135 98 168 25 15 49 30 54 31 12 4-2 68-16 68-6 0-34-13-62-29z"/>
    <path d="M980 2165c0-33 2-35 35-35 33 0 35 2 35 35 0 33-2 35-35 35-33 0-35-2-35-35z"/>
    <path d="M2340 1660v-40h-40c-39 0-40-1-40-35 0-34 1-35 40-35h40v-40c0-39 1-40 35-40 34 0 35 1 35 40 0 39 1 40 35 40 33 0 35 2 35 35 0 33-2 35-35 35-34 0-35 1-35 40 0 39-1 40-35 40-34 0-35-1-35-40z"/>
  </g>
</svg>
