<svg viewBox="0 0 60 60" xmlns="http://www.w3.org/2000/svg" fill="none">
  <defs>
    <clipPath id="teeth-fill-clip">
      <rect x="0" y="24" width="60" height="36" />
    </clipPath>
  </defs>

  <path
    d="M49.938 8.867H10.061C4.513 8.867 0 13.38 0 18.928v7.559c0 2.967 2.413 5.38 5.379 5.38h0.885c-0.658 4.975-1.155 10.482-1.262 13.97-0.135 4.42 5.401 4.812 9.444 5.098l0.783 0.057c1.219 0.091 2.15 0.143 3.086 0.143 0.914 0 1.832-0.049 3.025-0.157 0.508-0.047 1.033-0.082 1.56-0.117 2.568-0.174 5.574-0.385 7.099-2.074 1.525 1.689 4.53 1.9 7.099 2.074 0.527 0.035 1.052 0.07 1.561 0.117 1.193 0.108 2.111 0.157 3.024 0.157 0.936 0 1.868-0.052 3.087-0.143l0.783-0.057c4.042-0.286 9.579-0.678 9.444-5.098-0.106-3.487-0.604-8.995-1.262-13.97h0.885c2.966 0 5.379-2.413 5.379-5.38v-7.559C60 13.38 55.486 8.867 49.938 8.867zM22.767 48.863c-0.543 0.037-1.083 0.073-1.607 0.121-2.277 0.208-3.495 0.184-5.782 0.013l-0.791-0.058c-4.342-0.307-7.657-0.727-7.586-3.042 0.172-5.636 1.376-16.625 2.613-21.817 1.092-4.581 4.676-5.213 8.387-5.213 6.609 0 7.752 0.178 9.391 6.444 1.393 5.326 1.583 17.086 1.608 20.563 0.017 2.395-2.343 2.727-6.233 2.989zM45.412 48.939l-0.79 0.058c-2.288 0.172-3.504 0.196-5.782-0.013-0.524-0.048-1.064-0.084-1.607-0.121-3.89-0.262-6.25-0.594-6.233-2.989 0.025-3.477 0.215-15.236 1.608-20.563 1.639-6.267 2.782-6.444 9.391-6.444 3.711 0 7.295 0.632 8.387 5.213 1.237 5.192 2.441 16.182 2.613 21.817 0.07 2.315-3.245 2.735-7.587 3.042zM58 26.487c0 1.863-1.516 3.38-3.379 3.38h-0.989c-0.385-2.134-0.831-4.278-1.301-6.25-1.441-6.051-6.587-6.75-10.332-6.75-7.027 0-9.345 0.361-11.326 7.938-0.255 0.976-0.479 2.018-0.673 3.145-0.195-1.127-0.418-2.169-0.673-3.145-1.981-7.577-4.298-7.938-11.326-7.938-3.745 0-8.891 0.699-10.332 6.75-0.47 1.972-0.916 4.116-1.301 6.25H5.379C3.516 29.867 2 28.35 2 26.487v-7.559c0-4.445 3.616-8.062 8.061-8.062h39.877c4.445 0 8.062 3.616 8.062 8.062V26.487z"
    fill="#000000"
    clip-path="url(#teeth-fill-clip)"
  />

  <path
    d="M49.938 8.867H10.061C4.513 8.867 0 13.38 0 18.928v7.559c0 2.967 2.413 5.38 5.379 5.38h0.885c-0.658 4.975-1.155 10.482-1.262 13.97-0.135 4.42 5.401 4.812 9.444 5.098l0.783 0.057c1.219 0.091 2.15 0.143 3.086 0.143 0.914 0 1.832-0.049 3.025-0.157 0.508-0.047 1.033-0.082 1.56-0.117 2.568-0.174 5.574-0.385 7.099-2.074 1.525 1.689 4.53 1.9 7.099 2.074 0.527 0.035 1.052 0.07 1.561 0.117 1.193 0.108 2.111 0.157 3.024 0.157 0.936 0 1.868-0.052 3.087-0.143l0.783-0.057c4.042-0.286 9.579-0.678 9.444-5.098-0.106-3.487-0.604-8.995-1.262-13.97h0.885c2.966 0 5.379-2.413 5.379-5.38v-7.559C60 13.38 55.486 8.867 49.938 8.867zM22.767 48.863c-0.543 0.037-1.083 0.073-1.607 0.121-2.277 0.208-3.495 0.184-5.782 0.013l-0.791-0.058c-4.342-0.307-7.657-0.727-7.586-3.042 0.172-5.636 1.376-16.625 2.613-21.817 1.092-4.581 4.676-5.213 8.387-5.213 6.609 0 7.752 0.178 9.391 6.444 1.393 5.326 1.583 17.086 1.608 20.563 0.017 2.395-2.343 2.727-6.233 2.989zM45.412 48.939l-0.79 0.058c-2.288 0.172-3.504 0.196-5.782-0.013-0.524-0.048-1.064-0.084-1.607-0.121-3.89-0.262-6.25-0.594-6.233-2.989 0.025-3.477 0.215-15.236 1.608-20.563 1.639-6.267 2.782-6.444 9.391-6.444 3.711 0 7.295 0.632 8.387 5.213 1.237 5.192 2.441 16.182 2.613 21.817 0.07 2.315-3.245 2.735-7.587 3.042zM58 26.487c0 1.863-1.516 3.38-3.379 3.38h-0.989c-0.385-2.134-0.831-4.278-1.301-6.25-1.441-6.051-6.587-6.75-10.332-6.75-7.027 0-9.345 0.361-11.326 7.938-0.255 0.976-0.479 2.018-0.673 3.145-0.195-1.127-0.418-2.169-0.673-3.145-1.981-7.577-4.298-7.938-11.326-7.938-3.745 0-8.891 0.699-10.332 6.75-0.47 1.972-0.916 4.116-1.301 6.25H5.379C3.516 29.867 2 28.35 2 26.487v-7.559c0-4.445 3.616-8.062 8.061-8.062h39.877c4.445 0 8.062 3.616 8.062 8.062V26.487z"
    stroke="#000000"
    stroke-width="1.8"
    stroke-linecap="round"
    stroke-linejoin="round"
  />
</svg>
